<?xml version="1.0" encoding="utf-8"?>
<!-- Generator: Adobe Illustrator 22.1.0, SVG Export Plug-In . SVG Version: 6.00 Build 0)  -->
<svg version="1.1" id="Capa_1" xmlns="http://www.w3.org/2000/svg" xmlns:xlink="http://www.w3.org/1999/xlink" x="0px" y="0px"
	 viewBox="0 0 99 99" style="enable-background:new 0 0 99 99;" xml:space="preserve">
<style type="text/css">
	.st0{fill:#FFFFFF;}
</style>
<g>
	<path class="st0" d="M91.7,27.7c0,3.7-1.1,6.9-3.4,9.7s-5.2,4.7-8.8,5.4c-0.2,4.7-1.3,8.6-3.7,11.6c-2.4,3-5.6,4.9-9.7,6
		c-2.6,0.9-6.7,1.5-12.2,1.9c-3.4,0.4-5.8,0.6-7.3,1.1c-2.4,0.4-4.5,1.1-6,1.7c-1.7,0.9-2.8,1.9-3.7,3.4c3.4,0.9,6,2.8,8.2,5.6
		c2.1,2.8,3.2,6,3.2,9.4c0,4.3-1.5,7.9-4.5,11c-3,3-6.7,4.5-11,4.5s-7.9-1.5-11-4.5s-4.5-6.7-4.5-11c0-3.7,1.1-7.1,3.4-9.9
		s5.4-4.5,9-5.2v-38c-3.7-0.6-6.7-2.4-9-5.2c-2.4-2.8-3.4-6.2-3.4-9.9c0-4.3,1.5-7.9,4.5-11c3-3,6.7-4.5,11-4.5s7.9,1.5,11,4.5
		c3,3,4.5,6.7,4.5,11c0,3.7-1.1,7.1-3.4,9.9c-2.4,2.8-5.4,4.5-9,5.2v30.3c0.4-0.4,1.1-0.9,1.9-1.1c1.9-0.9,4.3-1.7,7.3-2.1
		c1.7-0.4,4.5-0.9,8.2-1.1c4.7-0.4,8.2-0.9,10.3-1.3c3.4-0.9,5.8-2.4,7.3-4.1c1.5-1.9,2.4-4.5,2.4-7.7c-3.7-0.9-6.7-2.6-9-5.4
		c-2.4-2.8-3.7-6.2-3.7-9.9c0-4.3,1.5-7.9,4.5-11c3-3,6.7-4.5,11-4.5s7.9,1.5,11,4.5C90.2,19.8,91.7,23.4,91.7,27.7z M23.4,15.2
		c0,2.6,0.9,4.7,2.8,6.7c1.7,1.7,4.1,2.8,6.7,2.8c2.6,0,4.7-0.9,6.7-2.8c1.7-1.7,2.8-4.1,2.8-6.7c0-2.6-0.9-4.7-2.8-6.7
		c-1.7-1.7-4.1-2.8-6.7-2.8c-2.6,0-4.7,0.9-6.7,2.8C24.3,10.5,23.4,12.7,23.4,15.2z M42.1,83.5c0-2.6-0.9-4.7-2.8-6.7
		c-1.7-1.7-4.1-2.8-6.7-2.8c-2.6,0-4.7,0.9-6.7,2.8c-1.7,1.7-2.8,4.1-2.8,6.7c0,2.6,0.9,4.7,2.8,6.7c1.7,1.7,4.1,2.8,6.7,2.8
		c2.6,0,4.7-0.9,6.7-2.8C41.3,88.3,42.1,86.1,42.1,83.5z M78.6,36.7L78.6,36.7c2.1-0.4,3.7-1.5,4.9-3.2c1.3-1.7,1.9-3.4,1.9-5.8
		c0-2.6-0.9-4.7-2.8-6.7c-1.7-1.7-4.1-2.8-6.7-2.8c-2.6,0-4.7,0.9-6.7,2.8c-1.7,1.7-2.8,4.1-2.8,6.7s0.9,4.7,2.8,6.7
		c1.7,1.7,4.1,2.8,6.7,2.8L78.6,36.7z"/>
</g>
</svg>
