<?xml version="1.0" encoding="utf-8"?>
<!-- Generator: Adobe Illustrator 22.1.0, SVG Export Plug-In . SVG Version: 6.00 Build 0)  -->
<svg version="1.1" id="Capa_1" xmlns="http://www.w3.org/2000/svg" xmlns:xlink="http://www.w3.org/1999/xlink" x="0px" y="0px"
	 viewBox="0 0 99 99" style="enable-background:new 0 0 99 99;" xml:space="preserve">
<circle fill="#b19a5b" cx="49.4" cy="49.6" r="43.9"/>
<g>
	<path fill="#FFFFFF" d="M72,39.5c0,1.7-0.5,3.2-1.6,4.5c-1.1,1.3-2.4,2.2-4.1,2.5c-0.1,2.2-0.6,4-1.7,5.4c-1.1,1.4-2.6,2.3-4.5,2.8
		c-1.2,0.4-3.1,0.7-5.7,0.9c-1.6,0.2-2.7,0.3-3.4,0.5c-1.1,0.2-2.1,0.5-2.8,0.8c-0.8,0.4-1.3,0.9-1.7,1.6c1.6,0.4,2.8,1.3,3.8,2.6
		c1,1.3,1.5,2.8,1.5,4.4c0,2-0.7,3.7-2.1,5.1s-3.1,2.1-5.1,2.1s-3.7-0.7-5.1-2.1s-2.1-3.1-2.1-5.1c0-1.7,0.5-3.3,1.6-4.6
		c1.1-1.3,2.5-2.1,4.2-2.4V40.8c-1.7-0.3-3.1-1.1-4.2-2.4c-1.1-1.3-1.6-2.9-1.6-4.6c0-2,0.7-3.7,2.1-5.1c1.4-1.4,3.1-2.1,5.1-2.1
		s3.7,0.7,5.1,2.1c1.4,1.4,2.1,3.1,2.1,5.1c0,1.7-0.5,3.3-1.6,4.6c-1.1,1.3-2.5,2.1-4.2,2.4v14.1c0.2-0.2,0.5-0.4,0.9-0.5
		c0.9-0.4,2-0.8,3.4-1c0.8-0.2,2.1-0.4,3.8-0.5c2.2-0.2,3.8-0.4,4.8-0.6c1.6-0.4,2.7-1.1,3.4-1.9c0.7-0.9,1.1-2.1,1.1-3.6
		c-1.7-0.4-3.1-1.2-4.2-2.5c-1.1-1.3-1.7-2.9-1.7-4.6c0-2,0.7-3.7,2.1-5.1c1.4-1.4,3.1-2.1,5.1-2.1c2,0,3.7,0.7,5.1,2.1
		C71.3,35.8,72,37.5,72,39.5z M40.2,33.7c0,1.2,0.4,2.2,1.3,3.1c0.8,0.8,1.9,1.3,3.1,1.3c1.2,0,2.2-0.4,3.1-1.3
		c0.8-0.8,1.3-1.9,1.3-3.1c0-1.2-0.4-2.2-1.3-3.1c-0.8-0.8-1.9-1.3-3.1-1.3c-1.2,0-2.2,0.4-3.1,1.3C40.6,31.5,40.2,32.5,40.2,33.7z
		 M48.9,65.5c0-1.2-0.4-2.2-1.3-3.1c-0.8-0.8-1.9-1.3-3.1-1.3c-1.2,0-2.2,0.4-3.1,1.3c-0.8,0.8-1.3,1.9-1.3,3.1s0.4,2.2,1.3,3.1
		c0.8,0.8,1.9,1.3,3.1,1.3c1.2,0,2.2-0.4,3.1-1.3C48.5,67.7,48.9,66.7,48.9,65.5z M65.9,43.7L65.9,43.7c1-0.2,1.7-0.7,2.3-1.5
		s0.9-1.6,0.9-2.7c0-1.2-0.4-2.2-1.3-3.1c-0.8-0.8-1.9-1.3-3.1-1.3s-2.2,0.4-3.1,1.3c-0.8,0.8-1.3,1.9-1.3,3.1s0.4,2.2,1.3,3.1
		c0.8,0.8,1.9,1.3,3.1,1.3L65.9,43.7z"/>
</g>
</svg>
