<?xml version="1.0" encoding="utf-8"?>
<!-- Generator: Adobe Illustrator 22.0.1, SVG Export Plug-In . SVG Version: 6.00 Build 0)  -->
<svg version="1.1" id="Capa_1" xmlns="http://www.w3.org/2000/svg" xmlns:xlink="http://www.w3.org/1999/xlink" x="0px" y="0px"
	 viewBox="0 0 99 99" style="enable-background:new 0 0 99 99;" xml:space="preserve">
<path d="M53.2,45.6c0.9,1,1.4,2.2,1.4,3.8c0,2-0.6,3.7-1.7,5.2c-1.1,1.5-2.5,2.3-4.1,2.3c-1.1,0-1.9-0.6-2.6-1.7
	c-0.7-1.1-1-2.5-1-4.2c0-2.1,0.5-3.7,1.4-5s2.1-1.9,3.4-1.9C51.2,44.2,52.3,44.7,53.2,45.6z M13.4,75.9C6.8,68.8,2.9,59.8,2.9,50
	C2.9,27.2,24,8.7,50,8.7S97.1,27.2,97.1,50S76,91.3,50,91.3c-9.4,0-18.2-2.4-25.6-6.6c-6.6,4-13.8,3.8-18,3.3
	c-1.2-0.2-1.5-1.7-0.5-2.4C10,82.9,12.2,79.2,13.4,75.9z M25.6,50c0,6.7,2.3,12.5,7,17.3s11,7.3,19,7.3c4.8,0,9.5-1,14.1-3
	c1.5-0.6,2.2-2.4,1.6-3.9c-0.6-1.6-2.4-2.3-4-1.6c-4,1.7-7.9,2.6-11.8,2.6c-6.1,0-10.8-1.9-14.2-5.6c-3.3-3.7-5-8.1-5-13.1
	c0-5.4,1.8-10,5.4-13.6c3.6-3.6,8-5.5,13.2-5.5c4.8,0,8.9,1.5,12.2,4.5s5,6.7,5,11.3c0,3.1-0.8,5.7-2.3,7.7
	c-1.5,2.1-3.1,3.1-4.7,3.1c-0.9,0-1.3-0.5-1.3-1.4c0-0.8,0.1-1.7,0.2-2.7l1.9-15.3h-6.4L55,39.7c-1.6-1.3-3.4-2-5.4-2
	c-3.1,0-5.7,1.2-7.9,3.7s-3.3,5.6-3.3,9.5c0,3.8,1,6.8,2.9,9.2c2,2.3,4.3,3.5,7,3.5c2.5,0,4.6-1,6.3-3.1c1.3,2,3.2,3,5.8,3
	c3.8,0,7-1.6,9.7-4.9c2.7-3.3,4.1-7.2,4.1-11.8c0-5.9-2.2-10.9-6.7-15s-10.1-6.2-16.7-6.2c-7,0-13,2.3-17.9,7
	C28.1,37.2,25.6,43,25.6,50z"/>
</svg>
